{"glyphs":{":":{"x_min":0,"x_max":272,"ha":272,"o":"m 211 422 l 80 422 l 107 552 l 239 552 z m 124 0 l -7 0 l 20 130 l 151 130 z"},"$":{"x_min":0,"x_max":500,"ha":500,"o":"m 242 469 l 280 646 q 241 645 218 621 q 195 598 195 560 q 195 535 207 512 q 218 490 242 469 z m 214 101 q 255 106 276 134 q 298 161 298 207 q 298 229 287 250 q 277 270 253 292 z m 10 255 l 124 255 q 123 248 123 238 q 122 228 122 205 q 122 162 132 140 q 142 117 166 106 l 212 325 q 136 380 104 429 q 72 479 72 538 q 72 633 127 684 q 182 736 283 736 l 297 736 l 309 795 l 361 795 l 347 730 q 412 719 446 673 q 479 627 479 549 q 479 543 479 536 q 478 529 477 514 l 367 514 q 368 520 368 525 q 368 531 368 542 q 368 581 358 605 q 347 628 326 638 l 284 437 q 367 379 398 333 q 430 286 430 226 q 430 124 372 62 q 313 0 215 0 q 211 0 204 1 q 197 2 194 2 l 174 -94 l 122 -94 l 143 6 q 71 20 38 67 q 5 113 5 201 q 5 218 6 231 q 7 244 10 255 z"},"?":{"x_min":0,"x_max":497,"ha":497,"o":"m 233 0 l 102 0 l 129 130 l 260 130 z m 260 204 l 145 204 q 147 266 167 312 q 187 358 234 407 q 245 418 265 438 q 352 524 352 592 q 352 633 337 651 q 321 669 286 669 q 256 669 240 646 q 224 624 222 578 l 102 578 q 102 671 151 721 q 201 770 294 770 q 381 770 432 722 q 483 674 483 592 q 483 476 353 357 q 343 348 338 343 q 292 300 278 272 q 263 243 260 204 z"},"<":{"x_min":0,"x_max":833,"ha":833,"o":"m 704 583 l 704 476 l 268 298 l 704 120 l 704 13 l 129 250 l 129 347 z"},"'":{"x_min":0,"x_max":172,"ha":172,"o":"m 39 702 l 133 702 l 133 429 l 39 429 z"},"=":{"x_min":0,"x_max":833,"ha":833,"o":"m 124 242 l 709 242 l 709 145 l 124 145 z m 124 452 l 709 452 l 709 355 l 124 355 z"},"a":{"x_min":0,"x_max":487,"ha":487,"o":"m 281 271 q 266 265 239 253 q 118 202 118 140 q 118 108 133 92 q 147 75 174 75 q 216 75 238 112 q 260 149 281 271 z m 246 44 q 222 13 194 -2 q 166 -17 130 -17 q 62 -17 25 22 q -12 62 -12 134 q -12 212 28 258 q 69 304 156 325 q 162 327 173 329 q 312 362 312 431 q 312 457 297 471 q 282 485 254 485 q 219 485 199 465 q 180 445 172 400 l 46 400 q 59 490 111 535 q 163 579 257 579 q 344 579 393 543 q 441 507 441 443 q 441 434 439 419 q 438 405 434 387 l 369 76 q 367 64 365 44 q 362 24 361 0 l 240 0 z"},"L":{"x_min":0,"x_max":450,"ha":450,"o":"m -13 0 l 144 752 l 281 752 l 150 124 l 404 124 l 376 0 z"},"3":{"x_min":0,"x_max":500,"ha":500,"o":"m 16 252 l 142 252 q 138 221 136 201 q 135 182 135 166 q 135 122 149 101 q 164 80 194 80 q 240 80 263 124 q 287 167 287 252 q 287 303 261 324 q 235 346 173 346 l 163 346 l 183 441 l 193 441 l 211 441 q 283 441 315 476 q 348 511 348 586 q 348 617 331 635 q 314 652 285 652 q 250 652 229 624 q 209 595 203 538 l 78 538 q 85 640 139 697 q 193 753 284 753 q 376 753 426 707 q 475 660 475 574 q 475 493 440 441 q 405 388 343 376 q 384 353 403 320 q 422 288 422 240 q 422 114 363 47 q 305 -21 195 -21 q 104 -21 55 28 q 6 77 6 168 q 6 182 9 203 q 11 225 16 252 z"},";":{"x_min":0,"x_max":272,"ha":272,"o":"m 203 421 l 72 421 l 100 551 l 231 551 z m 57 0 l -13 0 l 15 129 l 146 129 l 114 -21 q 100 -90 64 -118 q 28 -147 -43 -147 l -35 -105 q 8 -105 32 -78 q 56 -50 57 0 z"},"J":{"x_min":0,"x_max":437,"ha":437,"o":"m 307 752 l 449 752 l 324 156 q 304 61 260 21 q 216 -20 134 -20 q 54 -20 13 17 q -28 53 -28 124 q -28 143 -24 170 q -21 197 -13 242 l 106 242 q 98 189 95 165 q 92 140 92 131 q 92 110 102 98 q 112 87 130 87 q 151 87 162 102 q 173 116 184 167 z"},"V":{"x_min":0,"x_max":528,"ha":528,"o":"m 260 0 l 84 0 l 73 752 l 212 752 l 200 285 q 200 271 194 146 q 193 114 192 95 q 201 131 214 172 q 227 214 246 263 l 433 752 l 584 752 z"},"\"":{"x_min":0,"x_max":331,"ha":331,"o":"m 198 702 l 292 702 l 292 429 l 198 429 z m 39 702 l 133 702 l 133 429 l 39 429 z"},"7":{"x_min":0,"x_max":500,"ha":500,"o":"m 200 0 l 61 0 q 98 172 174 331 q 250 489 357 621 l 87 621 l 111 741 l 516 741 l 496 639 q 389 495 315 336 q 241 177 200 0 z"},"S":{"x_min":0,"x_max":561,"ha":561,"o":"m 31 271 l 163 271 q 163 267 162 261 q 159 228 159 214 q 159 147 178 119 q 197 91 240 91 q 285 91 312 120 q 340 148 340 196 q 340 261 242 337 l 237 341 q 153 407 126 452 q 98 498 98 556 q 98 659 157 715 q 215 771 323 771 q 426 771 481 722 q 535 672 535 579 q 535 569 534 554 q 534 539 532 519 l 399 519 q 400 540 401 553 q 402 565 402 572 q 402 619 381 643 q 359 667 318 667 q 279 667 254 643 q 230 619 230 580 q 230 549 249 522 q 268 495 326 449 q 333 444 345 434 q 484 328 484 224 q 484 111 418 46 q 353 -18 236 -18 q 132 -18 79 35 q 26 87 26 191 q 26 211 27 231 q 28 250 31 271 z"},"}":{"x_min":0,"x_max":500,"ha":500,"o":"m 70 721 l 103 721 q 157 721 189 715 q 222 709 244 697 q 272 681 283 652 q 295 623 295 555 l 295 432 q 295 365 320 337 q 345 309 404 309 q 407 309 414 310 q 420 310 424 310 l 424 208 l 406 208 q 345 208 320 181 q 295 153 295 86 l 295 -37 q 295 -107 283 -135 q 272 -164 244 -179 q 221 -191 188 -197 q 156 -203 107 -203 q 101 -203 89 -203 q 77 -202 70 -202 l 70 -100 q 74 -100 82 -101 q 90 -101 93 -101 q 142 -101 159 -82 q 177 -63 177 -4 l 177 113 q 177 186 199 216 q 221 246 278 259 q 221 272 199 302 q 177 333 177 405 l 177 523 q 177 583 159 601 q 142 620 93 620 q 90 620 82 620 q 74 619 70 619 z"},"Z":{"x_min":0,"x_max":487,"ha":487,"o":"m 391 0 l -30 0 l -8 113 l 330 637 l 85 637 l 112 752 l 514 752 l 492 642 l 155 118 l 416 118 z"},"x":{"x_min":0,"x_max":407,"ha":407,"o":"m 72 0 l -73 0 l 117 298 l 41 560 l 169 560 l 200 407 l 288 560 l 434 560 l 245 278 l 334 0 l 202 0 l 163 169 z"},")":{"x_min":0,"x_max":329,"ha":329,"o":"m 166 750 q 210 672 231 588 q 252 503 252 406 q 252 230 190 79 q 128 -73 3 -202 l -75 -202 q -30 -146 6 -72 q 42 2 72 101 q 103 203 119 302 q 135 401 135 489 q 135 563 124 628 q 114 692 92 750 z"},"&":{"x_min":0,"x_max":625,"ha":625,"o":"m 297 508 q 334 533 353 558 q 371 583 371 607 q 371 631 358 645 q 344 659 321 659 q 296 659 281 644 q 266 629 266 603 q 266 590 273 567 q 281 545 297 508 z m 335 135 l 239 343 q 194 313 173 282 q 153 250 153 211 q 153 166 182 134 q 210 102 252 102 q 273 102 293 110 q 313 118 335 135 z m 533 0 l 397 0 l 377 38 q 346 11 307 -4 q 268 -19 227 -19 q 138 -19 82 43 q 25 105 25 205 q 25 278 68 338 q 111 398 197 444 q 176 485 164 524 q 153 563 153 594 q 153 663 199 708 q 246 754 316 754 q 392 754 437 713 q 482 672 482 605 q 482 548 448 499 q 413 451 345 411 l 420 248 q 434 271 443 302 q 453 333 459 379 l 568 379 q 564 314 541 252 q 518 191 473 128 z"},"_":{"x_min":0,"x_max":500,"ha":500,"o":"m 0 -136 l 500 -136 l 500 -236 l 0 -236 z"},"v":{"x_min":0,"x_max":440,"ha":440,"o":"m 220 0 l 73 0 l 31 560 l 161 560 l 171 147 l 323 560 l 462 560 z"},"O":{"x_min":0,"x_max":587,"ha":587,"o":"m 341 664 q 301 664 277 636 q 252 607 231 534 q 198 416 177 316 q 156 216 156 189 q 156 139 177 114 q 199 89 243 89 q 291 89 317 123 q 343 156 370 266 q 396 374 411 460 q 427 546 427 577 q 427 620 405 642 q 383 664 341 664 z m 25 185 q 25 213 28 246 q 32 280 39 320 q 55 415 73 488 q 92 562 108 601 q 146 690 200 730 q 254 770 336 770 q 450 770 505 720 q 560 669 560 565 q 560 544 558 521 q 557 498 553 472 q 542 390 526 317 q 510 244 492 191 q 455 80 396 31 q 337 -17 240 -17 q 134 -17 80 34 q 25 85 25 185 z"},"(":{"x_min":0,"x_max":329,"ha":329,"o":"m 122 -202 q 79 -125 58 -41 q 37 44 37 142 q 37 317 99 469 q 161 621 286 750 l 364 750 q 319 694 283 620 q 247 545 217 447 q 186 345 170 246 q 154 146 154 59 q 154 -15 165 -80 q 175 -145 197 -202 z"},"C":{"x_min":0,"x_max":581,"ha":581,"o":"m 359 244 l 490 244 q 471 113 409 48 q 347 -17 243 -17 q 135 -17 80 33 q 26 83 26 184 q 26 210 29 243 q 33 276 40 318 q 57 417 74 490 q 92 563 108 602 q 145 690 198 730 q 250 770 331 770 q 446 770 497 719 q 548 668 548 553 q 548 540 545 505 q 544 498 544 493 l 409 493 q 411 514 411 531 q 412 547 412 559 q 412 617 394 641 q 376 664 333 664 q 294 664 271 636 q 248 608 228 534 q 197 416 179 313 q 160 211 160 179 q 160 133 181 110 q 202 88 244 88 q 290 88 317 126 q 345 164 359 244 z"},"W":{"x_min":0,"x_max":806,"ha":806,"o":"m 248 0 l 85 0 l 75 752 l 208 752 l 197 284 q 196 254 194 209 q 191 163 187 108 q 200 162 212 205 q 224 248 237 284 l 405 752 l 521 752 l 522 279 q 522 239 521 196 q 520 153 517 108 q 537 190 546 226 q 556 262 560 275 l 714 752 l 858 752 l 580 0 l 418 0 l 416 356 q 416 377 419 423 q 421 468 426 529 q 412 479 399 434 q 386 390 374 356 z"},"A":{"x_min":0,"x_max":526,"ha":526,"o":"m 200 301 l 316 301 l 327 662 z m 82 0 l -62 0 l 255 752 l 434 752 l 451 0 l 314 0 l 314 193 l 158 193 z"},"f":{"x_min":0,"x_max":277,"ha":277,"o":"m -13 0 l 87 474 l 34 474 l 52 560 l 106 560 l 125 652 q 138 710 168 733 q 198 757 260 757 q 269 757 286 755 q 303 753 332 749 l 312 655 q 308 656 304 657 q 299 657 290 657 q 269 657 259 648 q 249 640 244 616 l 232 560 l 291 560 l 273 474 l 219 474 l 118 0 z"},"Q":{"x_min":0,"x_max":587,"ha":587,"o":"m 505 -6 l 437 -68 l 360 12 q 338 -2 306 -9 q 274 -16 232 -16 q 136 -16 80 37 q 25 91 25 184 q 25 210 28 244 q 32 277 39 320 q 56 420 74 492 q 92 564 108 603 q 146 691 199 731 q 253 771 335 771 q 449 771 504 721 q 558 671 558 567 q 558 514 546 436 q 534 358 511 266 q 493 191 475 145 q 456 99 433 70 z m 249 131 l 314 199 l 341 169 q 380 303 403 418 q 426 533 426 578 q 426 621 404 643 q 383 665 341 665 q 300 665 275 636 q 250 607 230 536 q 197 418 179 323 q 161 228 161 173 q 161 130 180 108 q 198 86 235 86 q 247 86 258 89 q 270 91 281 97 z"},"w":{"x_min":0,"x_max":678,"ha":678,"o":"m 67 0 l 39 560 l 163 560 l 167 155 l 308 560 l 416 560 l 418 146 l 558 560 l 689 560 l 471 0 l 326 0 l 325 349 l 202 0 z"},"-":{"x_min":0,"x_max":328,"ha":328,"o":"m 252 226 l 11 226 l 35 339 l 276 339 z"},"E":{"x_min":0,"x_max":491,"ha":491,"o":"m -14 0 l 143 752 l 510 752 l 486 632 l 255 632 l 216 449 l 442 449 l 418 333 l 192 333 l 147 121 l 394 121 l 370 0 z"},"s":{"x_min":0,"x_max":437,"ha":437,"o":"m -8 199 l 104 199 q 104 191 103 182 q 103 174 103 160 q 103 119 119 100 q 134 81 168 81 q 200 81 215 97 q 231 113 231 145 q 231 185 163 236 l 157 240 q 91 288 69 325 q 47 362 47 414 q 47 494 95 536 q 144 579 234 579 q 316 579 360 540 q 403 500 403 425 q 403 423 402 408 q 402 393 402 381 l 289 381 l 289 397 q 289 449 275 467 q 261 486 225 486 q 200 486 185 470 q 170 455 170 428 q 170 385 229 345 q 245 335 253 329 q 307 290 332 251 q 356 212 356 166 q 356 80 306 32 q 255 -16 164 -16 q 76 -16 32 24 q -12 64 -12 145 q -12 158 -11 172 q -10 185 -8 199 z"},">":{"x_min":0,"x_max":833,"ha":833,"o":"m 129 583 l 704 347 l 704 250 l 129 13 l 129 120 l 566 298 l 129 476 z"},"l":{"x_min":0,"x_max":251,"ha":251,"o":"m -20 0 l 139 750 l 271 750 l 111 0 z"},"8":{"x_min":0,"x_max":500,"ha":500,"o":"m 291 656 q 256 656 233 611 q 210 567 210 498 q 210 472 226 456 q 241 440 266 440 q 304 440 327 482 q 350 524 350 596 q 350 625 334 640 q 319 656 291 656 z m 153 409 q 121 431 106 462 q 91 493 91 537 q 91 633 146 692 q 202 752 291 752 q 379 752 427 707 q 476 661 476 578 q 476 497 440 442 q 405 388 345 377 q 385 360 405 325 q 425 290 425 239 q 425 124 362 55 q 299 -14 193 -14 q 106 -14 57 33 q 8 81 8 164 q 8 268 46 331 q 83 395 153 409 z m 235 346 q 213 346 196 334 q 178 321 168 298 q 155 269 146 226 q 137 184 137 151 q 137 120 152 104 q 167 87 195 87 q 225 87 242 100 q 259 113 271 144 q 280 170 287 209 q 294 249 294 279 q 294 311 279 329 q 264 346 235 346 z"},"\\":{"x_min":0,"x_max":307,"ha":307,"o":"m 132 770 l 262 -93 l 188 -93 l 58 770 z"},"e":{"x_min":0,"x_max":484,"ha":484,"o":"m 304 354 q 309 377 311 396 q 313 414 313 427 q 313 456 299 470 q 285 484 257 484 q 219 484 198 455 q 178 426 165 354 z m 272 186 l 394 186 q 386 83 335 32 q 284 -19 190 -19 q 98 -19 53 22 q 8 63 8 147 q 8 165 10 188 q 12 212 15 237 q 24 306 37 361 q 49 416 62 447 q 92 517 139 548 q 186 578 265 578 q 354 578 396 541 q 437 503 437 422 q 437 392 431 352 q 426 312 415 266 l 149 266 q 141 226 136 195 q 132 164 132 146 q 132 111 147 94 q 163 77 194 77 q 228 77 247 104 q 266 130 272 186 z"},"b":{"x_min":0,"x_max":498,"ha":498,"o":"m 194 91 q 218 91 237 107 q 255 123 267 152 q 292 216 306 289 q 321 361 321 415 q 321 452 310 467 q 299 482 273 482 q 249 482 231 466 q 213 450 200 418 q 192 398 184 368 q 176 338 166 296 q 155 247 150 212 q 144 177 144 157 q 144 125 157 108 q 170 91 194 91 z m 271 750 l 222 525 q 239 551 264 565 q 290 578 321 578 q 385 578 417 537 q 448 497 448 413 q 448 390 445 361 q 442 333 435 292 q 425 236 412 188 q 399 141 384 107 q 357 45 319 16 q 281 -13 229 -13 q 190 -13 163 7 q 137 27 124 66 l 111 0 l -21 0 l 140 750 z"},"%":{"x_min":0,"x_max":771,"ha":771,"o":"m 515 174 q 515 107 527 84 q 539 61 571 61 q 604 61 616 83 q 628 105 628 173 q 628 236 615 260 q 602 284 569 284 q 539 284 527 260 q 515 237 515 174 z m 416 176 q 416 274 452 317 q 488 360 569 360 q 653 360 690 317 q 727 275 727 177 q 727 77 689 31 q 651 -14 569 -14 q 487 -14 451 30 q 416 74 416 176 z m 142 571 q 142 504 154 482 q 166 459 198 459 q 230 459 243 481 q 255 503 255 571 q 255 633 242 657 q 229 681 196 681 q 166 681 154 657 q 142 634 142 571 z m 44 574 q 44 672 80 714 q 115 757 197 757 q 281 757 318 715 q 354 673 354 575 q 354 475 316 429 q 279 383 197 383 q 115 383 80 427 q 44 471 44 574 z m 176 -14 l 520 757 l 593 757 l 248 -14 z"},"m":{"x_min":0,"x_max":742,"ha":742,"o":"m 109 0 l -22 0 l 97 560 l 218 560 l 207 512 q 240 544 274 561 q 308 577 343 577 q 387 577 413 560 q 438 543 449 507 q 486 543 520 560 q 555 577 591 577 q 644 577 672 550 q 700 522 700 471 q 700 459 698 442 q 696 425 691 403 l 605 0 l 474 0 l 557 391 q 562 411 563 419 q 564 428 564 435 q 564 458 552 470 q 541 482 518 482 q 486 482 467 458 q 448 434 436 380 l 355 0 l 227 0 l 310 391 q 314 411 316 419 q 317 428 317 435 q 317 458 305 470 q 293 482 271 482 q 239 482 220 458 q 201 434 189 380 z"},"#":{"x_min":0,"x_max":769,"ha":769,"o":"m 346 414 l 303 295 l 426 295 l 468 414 z m 346 715 l 454 715 l 383 512 l 501 512 l 573 715 l 681 715 l 609 512 l 747 512 l 711 414 l 574 414 l 533 296 l 675 296 l 640 198 l 498 198 l 426 -5 l 318 -5 l 390 198 l 271 198 l 198 -5 l 91 -5 l 162 198 l 22 198 l 59 296 l 197 296 l 239 414 l 93 414 l 129 512 l 274 512 z"},",":{"x_min":0,"x_max":250,"ha":250,"o":"m 63 0 l -6 0 l 21 129 l 152 129 l 121 -21 q 106 -90 71 -118 q 35 -147 -36 -147 l -28 -105 q 15 -105 39 -78 q 62 -51 63 0 z"},"n":{"x_min":0,"x_max":494,"ha":494,"o":"m 109 0 l -22 0 l 97 560 l 218 560 l 207 512 q 241 545 274 561 q 308 577 343 577 q 396 577 425 550 q 453 522 453 471 q 453 460 451 446 q 449 431 443 403 l 358 0 l 227 0 l 310 391 q 314 411 316 419 q 317 428 317 435 q 317 458 305 470 q 293 482 271 482 q 239 482 220 458 q 201 434 189 380 z"},"h":{"x_min":0,"x_max":495,"ha":495,"o":"m 110 0 l -21 0 l 139 750 l 269 750 l 221 522 q 249 549 280 563 q 311 577 344 577 q 397 577 426 550 q 454 522 454 471 q 454 460 452 446 q 450 431 444 403 l 359 0 l 228 0 l 311 391 q 315 411 317 419 q 318 428 318 435 q 318 458 306 470 q 294 482 272 482 q 240 482 221 458 q 202 434 190 380 z"},"z":{"x_min":0,"x_max":391,"ha":391,"o":"m 296 0 l -47 0 l -24 109 l 224 459 l 41 459 l 62 560 l 390 560 l 370 469 l 114 106 l 318 106 z"},"B":{"x_min":0,"x_max":569,"ha":569,"o":"m 143 106 l 208 106 q 281 106 313 142 q 345 178 345 258 q 345 305 321 326 q 296 346 239 346 q 221 346 212 346 q 202 345 193 344 z m 213 446 l 270 446 q 331 446 361 478 q 391 509 391 573 q 391 615 372 633 q 353 650 306 650 l 256 650 z m -12 0 l 145 752 l 317 752 q 430 752 478 711 q 527 669 527 576 q 527 494 493 445 q 460 396 397 385 q 439 369 461 332 q 483 294 483 239 q 483 171 460 119 q 438 67 396 38 q 366 18 323 9 q 280 0 169 0 z"},"K":{"x_min":0,"x_max":516,"ha":516,"o":"m 216 441 l 439 752 l 601 752 l 334 399 l 462 0 l 312 0 l 227 289 l 168 210 l 125 0 l -13 0 l 144 752 l 281 752 z"},"R":{"x_min":0,"x_max":591,"ha":591,"o":"m 214 432 l 285 432 q 362 432 396 464 q 429 497 429 569 q 429 613 406 631 q 382 650 327 650 l 259 650 z m 126 0 l -13 0 l 144 752 l 336 752 q 467 752 522 709 q 576 667 576 566 q 576 488 534 433 q 491 377 423 367 q 462 358 480 331 q 499 304 499 256 q 499 247 498 235 q 496 223 492 200 l 475 102 q 474 94 473 85 q 472 77 472 63 q 472 49 475 35 q 479 21 487 0 l 336 0 q 332 9 330 22 q 328 34 328 50 q 328 64 330 80 q 331 96 334 114 l 348 203 q 350 215 351 228 q 352 241 352 256 q 352 298 325 315 q 298 332 232 332 q 220 332 212 332 q 204 331 196 330 z"},"T":{"x_min":0,"x_max":480,"ha":480,"o":"m 222 0 l 83 0 l 217 635 l 52 635 l 76 752 l 533 752 l 508 635 l 356 635 z"},"P":{"x_min":0,"x_max":549,"ha":549,"o":"m 127 0 l -13 0 l 144 752 l 323 752 q 440 752 491 707 q 542 662 542 559 q 542 508 527 464 q 513 420 485 387 q 453 349 405 333 q 356 317 261 317 q 245 317 202 319 q 196 319 193 319 z m 216 427 l 277 427 q 344 427 374 460 q 403 494 403 569 q 403 613 383 631 q 362 650 314 650 l 263 650 z"},"|":{"x_min":0,"x_max":500,"ha":500,"o":"m 200 764 l 301 764 l 301 -236 l 200 -236 z"},"t":{"x_min":0,"x_max":277,"ha":277,"o":"m 267 721 l 232 560 l 290 560 l 272 475 l 214 475 l 143 140 q 143 138 142 135 q 141 127 141 124 q 141 108 151 102 q 161 95 185 95 l 198 95 l 177 0 q 159 -3 143 -4 q 126 -6 111 -6 q 60 -6 32 16 q 4 39 4 80 q 4 93 6 110 q 8 127 13 148 l 83 475 l 34 475 l 52 560 l 101 560 l 135 721 z"},"M":{"x_min":0,"x_max":759,"ha":759,"o":"m 121 0 l -13 0 l 143 752 l 356 752 l 359 425 q 359 366 359 327 q 358 289 358 251 q 384 329 394 357 q 404 386 412 403 l 562 752 l 771 752 l 614 0 l 478 0 l 609 550 q 615 576 624 609 q 633 643 645 685 l 636 685 q 616 632 603 599 q 590 565 582 548 l 344 0 l 257 0 l 255 539 q 255 563 254 612 q 254 661 254 685 l 245 685 q 242 654 236 616 q 230 578 220 525 z"},"g":{"x_min":0,"x_max":498,"ha":498,"o":"m 348 560 l 478 560 l 358 -6 q 333 -121 287 -159 q 242 -197 140 -197 q 67 -197 25 -165 q -17 -133 -22 -74 l 100 -74 q 100 -93 112 -101 q 123 -110 148 -110 q 186 -110 205 -82 q 224 -53 240 37 q 225 11 198 -4 q 170 -18 135 -18 q 71 -18 40 23 q 9 63 9 147 q 9 170 12 199 q 15 228 22 268 q 32 324 45 372 q 58 419 73 453 q 100 515 138 544 q 176 573 228 573 q 267 573 294 553 q 320 533 333 494 z m 263 469 q 239 469 220 453 q 202 438 190 408 q 166 344 151 271 q 136 199 136 145 q 136 108 147 93 q 158 78 184 78 q 208 78 226 94 q 244 110 257 142 q 265 162 273 192 q 281 222 291 264 q 301 310 307 345 q 312 381 312 403 q 312 435 299 452 q 287 469 263 469 z"},"j":{"x_min":0,"x_max":251,"ha":251,"o":"m 144 750 l 275 750 l 251 638 l 120 638 z m 104 -59 q 87 -138 55 -164 q 22 -191 -53 -191 q -63 -191 -76 -189 q -89 -188 -105 -185 l -83 -90 q -80 -90 -76 -91 q -72 -91 -65 -91 q -46 -91 -38 -83 q -29 -75 -23 -47 l 104 560 l 235 560 z"},"i":{"x_min":0,"x_max":251,"ha":251,"o":"m 116 638 l 139 750 l 271 750 l 247 638 z m -20 0 l 99 560 l 230 560 l 111 0 z"},"y":{"x_min":0,"x_max":440,"ha":440,"o":"m -35 -183 l -13 -87 q -12 -87 -9 -87 q 6 -89 13 -89 q 43 -89 57 -72 q 71 -55 71 -19 q 71 -9 69 16 q 69 20 69 22 l 31 560 l 161 560 l 168 152 l 323 560 l 462 560 l 187 -58 q 149 -142 118 -167 q 86 -191 31 -191 q 18 -191 3 -189 q -13 -188 -35 -183 z"},"@":{"x_min":0,"x_max":1000,"ha":1000,"o":"m 570 133 q 543 92 508 73 q 473 53 425 53 q 348 53 307 95 q 267 137 267 219 q 267 336 335 415 q 403 494 503 494 q 542 494 571 478 q 600 462 618 430 l 644 478 l 731 478 l 659 186 q 658 181 657 175 q 656 169 656 166 q 656 149 667 140 q 679 132 702 132 q 721 132 742 142 q 763 151 781 169 q 823 208 844 260 q 866 312 866 375 q 866 492 776 568 q 685 643 542 643 q 473 643 414 626 q 354 610 306 577 q 223 521 178 438 q 134 354 134 255 q 134 105 235 15 q 336 -74 505 -74 q 584 -74 659 -50 q 735 -26 800 19 l 840 -38 q 765 -94 681 -123 q 598 -151 507 -151 q 413 -151 334 -127 q 256 -104 195 -57 q 119 2 82 79 q 44 156 44 254 q 44 335 70 409 q 95 483 145 544 q 217 632 319 678 q 420 723 545 723 q 627 723 700 701 q 772 679 826 638 q 892 587 925 521 q 957 456 957 373 q 957 292 925 224 q 893 156 833 108 q 799 81 759 66 q 718 52 675 52 q 623 52 597 72 q 571 93 570 133 z m 594 342 q 588 381 566 402 q 544 423 509 423 q 453 423 412 362 q 371 302 371 217 q 371 172 391 148 q 411 125 448 125 q 489 125 522 156 q 556 187 568 236 z"},".":{"x_min":0,"x_max":250,"ha":250,"o":"m 116 0 l -15 0 l 13 130 l 144 130 z"},"p":{"x_min":0,"x_max":498,"ha":498,"o":"m 197 91 q 221 91 239 106 q 257 122 269 152 q 294 217 309 290 q 324 363 324 415 q 324 451 313 467 q 301 482 275 482 q 246 482 227 460 q 207 438 190 383 q 170 318 159 257 q 148 197 148 152 q 148 123 161 107 q 174 91 197 91 z m 215 560 l 203 502 q 228 542 257 561 q 286 579 325 579 q 389 579 420 538 q 451 497 451 413 q 451 392 448 366 q 445 340 437 292 q 427 234 414 187 q 401 139 387 107 q 360 46 322 16 q 283 -13 231 -13 q 192 -13 165 7 q 139 27 126 66 l 73 -190 l -60 -190 l 101 560 z"},"X":{"x_min":0,"x_max":487,"ha":487,"o":"m 89 0 l -62 0 l 167 388 l 52 752 l 197 752 l 262 493 l 395 752 l 549 752 l 322 380 l 449 0 l 302 0 l 233 279 z"},"*":{"x_min":0,"x_max":500,"ha":500,"o":"m 286 484 l 199 362 l 128 410 l 223 532 l 83 571 l 109 654 l 244 609 l 244 752 l 328 752 l 328 609 l 461 654 l 491 571 l 350 533 l 443 411 l 373 359 z"},"Y":{"x_min":0,"x_max":506,"ha":506,"o":"m 253 0 l 113 0 l 177 307 l 39 752 l 192 752 l 249 512 q 250 505 254 487 q 257 469 261 442 q 271 470 281 493 q 291 517 298 531 l 411 752 l 574 752 l 316 310 z"},"c":{"x_min":0,"x_max":469,"ha":469,"o":"m 395 212 q 381 93 330 38 q 279 -18 183 -18 q 93 -18 51 23 q 8 64 8 151 q 8 178 12 215 q 17 253 26 302 q 40 375 55 419 q 70 464 92 496 q 119 536 161 557 q 203 578 258 578 q 343 578 387 537 q 431 496 431 416 q 431 405 430 391 q 429 377 426 360 l 301 360 q 304 378 306 392 q 307 406 307 416 q 307 447 293 464 q 278 481 252 481 q 224 481 207 459 q 189 438 175 384 q 155 307 144 249 q 134 190 134 152 q 134 113 146 96 q 159 79 186 79 q 220 79 240 112 q 260 145 268 212 z"},"!":{"x_min":0,"x_max":292,"ha":292,"o":"m 147 0 l 16 0 l 43 130 l 175 130 z m 155 194 l 75 194 l 115 529 l 161 752 l 296 752 l 248 519 z"},"/":{"x_min":0,"x_max":307,"ha":307,"o":"m 44 -93 l -30 -93 l 252 770 l 326 770 z"},"[":{"x_min":0,"x_max":329,"ha":329,"o":"m 154 -194 l -48 -194 l 153 750 l 353 750 l 337 665 l 258 665 l 94 -113 l 172 -113 z"},"6":{"x_min":0,"x_max":500,"ha":500,"o":"m 256 402 q 235 402 218 390 q 201 378 190 355 q 170 315 157 256 q 144 197 144 146 q 144 114 157 99 q 169 84 197 84 q 220 84 236 97 q 252 110 262 136 q 280 185 292 242 q 303 300 303 342 q 303 374 292 388 q 281 402 256 402 z m 200 459 q 220 479 244 489 q 268 499 297 499 q 363 499 401 457 q 438 415 438 340 q 438 267 419 194 q 400 120 371 74 q 341 28 299 7 q 256 -15 197 -15 q 111 -15 64 33 q 17 81 17 167 q 17 191 21 228 q 25 264 35 319 q 55 434 74 507 q 94 580 117 628 q 147 691 192 720 q 238 749 308 749 q 396 749 440 709 q 483 669 483 588 q 483 578 483 573 q 482 567 482 563 l 362 563 l 362 575 q 362 614 348 633 q 333 652 304 652 q 270 652 250 620 q 229 587 200 459 z"},"r":{"x_min":0,"x_max":350,"ha":350,"o":"m 221 560 l 199 471 l 202 471 q 226 526 260 552 q 293 577 342 577 q 351 577 355 577 q 359 577 364 576 l 335 432 q 326 433 317 434 q 308 434 299 434 q 247 434 220 411 q 193 387 181 331 l 111 0 l -20 0 l 100 560 z"},"2":{"x_min":0,"x_max":500,"ha":500,"o":"m 377 0 l -20 0 q -14 98 24 174 q 63 250 151 331 q 167 346 224 391 q 280 436 310 471 q 330 495 340 520 q 350 545 350 572 q 350 611 333 631 q 315 652 281 652 q 242 652 222 618 q 202 584 199 514 l 69 514 q 71 632 126 692 q 181 751 288 751 q 379 751 431 704 q 483 657 483 574 q 483 504 451 448 q 419 392 307 297 l 304 294 q 160 172 139 116 l 403 116 z"},"{":{"x_min":0,"x_max":500,"ha":500,"o":"m 431 721 l 431 619 q 427 619 419 620 q 411 620 408 620 q 359 620 342 601 q 324 583 324 522 l 324 405 q 324 333 302 302 q 280 272 223 259 q 280 246 302 216 q 324 186 324 114 l 324 -4 q 324 -64 341 -83 q 358 -101 408 -101 q 411 -101 419 -101 q 427 -100 431 -100 l 431 -202 q 424 -202 412 -203 q 400 -203 394 -203 q 345 -203 312 -197 q 280 -191 257 -179 q 229 -163 218 -135 q 206 -106 206 -37 l 206 86 q 206 153 181 181 q 156 209 97 209 q 94 209 87 208 q 81 208 77 208 l 77 310 q 81 310 87 310 q 94 309 97 309 q 156 309 181 337 q 206 366 206 433 l 206 555 q 206 625 218 653 q 229 682 257 698 q 280 710 312 716 q 345 722 394 722 q 400 722 412 722 q 424 721 431 721 z"},"9":{"x_min":0,"x_max":500,"ha":500,"o":"m 295 651 q 273 651 257 638 q 241 625 231 599 q 212 548 200 491 q 189 434 189 392 q 189 362 201 347 q 212 333 237 333 q 258 333 275 345 q 292 357 303 380 q 323 419 336 479 q 349 538 349 588 q 349 620 336 635 q 322 651 295 651 z m 11 172 l 131 172 l 131 160 q 131 121 145 102 q 159 83 189 83 q 223 83 243 115 q 264 148 293 276 q 272 255 249 246 q 225 236 196 236 q 130 236 93 278 q 55 320 55 395 q 55 468 74 541 q 92 614 122 660 q 152 706 194 728 q 236 750 295 750 q 380 750 428 702 q 475 654 475 568 q 475 542 471 504 q 467 466 458 416 q 438 301 419 229 q 399 156 376 107 q 346 44 300 15 q 254 -14 184 -14 q 96 -14 53 26 q 10 65 10 147 q 10 157 10 162 q 10 167 11 172 z"}," ":{"x_min":0,"x_max":250,"ha":250,"o":""},"I":{"x_min":0,"x_max":274,"ha":274,"o":"m 129 0 l -13 0 l 144 752 l 286 752 z"},"H":{"x_min":0,"x_max":598,"ha":598,"o":"m 125 0 l -13 0 l 144 752 l 283 752 l 221 456 l 410 456 l 472 752 l 611 752 l 453 0 l 314 0 l 387 346 l 198 346 z"},"4":{"x_min":0,"x_max":500,"ha":500,"o":"m 475 741 l 376 264 l 451 264 l 429 159 l 353 159 l 319 0 l 187 0 l 221 159 l -8 159 l 15 278 l 313 741 z m 109 264 l 247 264 l 325 594 l 317 594 q 307 574 294 552 q 281 530 264 504 z"},"~":{"x_min":0,"x_max":833,"ha":833,"o":"m 747 392 l 747 284 q 696 250 651 233 q 606 217 562 217 q 540 217 517 221 q 495 225 472 232 q 460 236 438 244 q 331 281 275 281 q 233 281 188 262 q 143 244 87 204 l 87 312 q 139 347 187 365 q 234 382 276 382 q 333 382 418 354 l 420 353 q 429 350 447 344 q 522 317 564 317 q 605 317 649 335 q 693 353 747 392 z"},"D":{"x_min":0,"x_max":593,"ha":593,"o":"m -14 0 l 144 752 l 347 752 q 457 752 510 705 q 564 658 564 561 q 564 532 557 479 q 551 426 539 362 q 521 269 505 211 q 488 153 470 118 q 437 56 387 28 q 338 0 263 0 z m 147 108 l 219 108 q 273 108 304 126 q 335 145 350 186 q 359 211 371 260 q 383 309 397 378 q 412 452 418 492 q 424 533 424 554 q 424 601 398 622 q 373 643 315 643 l 259 643 z"},"^":{"x_min":0,"x_max":1000,"ha":1000,"o":"m 438 713 l 561 713 l 796 439 l 681 439 l 500 620 l 318 439 l 203 439 z"},"0":{"x_min":0,"x_max":500,"ha":500,"o":"m 297 651 q 270 651 253 632 q 237 614 222 565 q 216 545 201 482 q 186 420 169 339 q 155 275 147 221 q 139 167 139 146 q 139 114 154 99 q 168 84 198 84 q 225 84 241 103 q 258 122 273 170 q 280 191 294 250 q 308 310 326 397 q 340 460 348 514 q 356 568 356 589 q 356 621 342 636 q 327 651 297 651 z m 12 167 q 12 192 16 228 q 21 264 29 312 q 44 395 60 464 q 76 532 89 571 q 122 666 172 708 q 222 750 300 750 q 390 750 437 701 q 484 652 484 559 q 484 525 478 481 q 472 438 454 356 q 436 270 420 212 q 404 153 388 115 q 362 54 312 19 q 263 -15 199 -15 q 108 -15 60 32 q 12 79 12 167 z"},"F":{"x_min":0,"x_max":484,"ha":484,"o":"m -13 0 l 144 752 l 511 752 l 487 632 l 256 632 l 217 449 l 443 449 l 419 333 l 195 333 l 125 0 z"},"`":{"x_min":0,"x_max":500,"ha":500,"o":"m 373 632 l 315 632 l 162 745 l 283 745 z"},"k":{"x_min":0,"x_max":463,"ha":463,"o":"m -20 0 l 140 750 l 270 750 l 187 355 l 359 560 l 508 560 l 303 326 l 387 0 l 253 0 l 200 225 l 146 165 l 111 0 z"},"u":{"x_min":0,"x_max":494,"ha":494,"o":"m 345 560 l 475 560 l 356 0 l 235 0 l 247 48 q 213 15 179 -1 q 146 -17 110 -17 q 57 -17 29 10 q 0 38 0 89 q 0 100 2 115 q 4 131 10 158 l 96 560 l 226 560 l 143 169 q 140 155 139 145 q 137 134 137 125 q 137 102 149 90 q 160 78 182 78 q 213 78 233 102 q 252 126 264 181 z"},"]":{"x_min":0,"x_max":329,"ha":329,"o":"m 134 750 l 336 750 l 135 -194 l -65 -194 l -49 -110 l 30 -110 l 194 669 l 116 669 z"},"U":{"x_min":0,"x_max":597,"ha":597,"o":"m 500 229 q 482 143 467 108 q 452 72 428 47 q 398 15 352 -2 q 306 -19 247 -19 q 146 -19 85 31 q 25 80 25 162 q 25 181 29 210 q 34 239 45 291 l 144 752 l 283 752 l 177 253 q 171 226 168 205 q 165 185 165 171 q 165 132 189 109 q 213 87 256 87 q 300 87 322 114 q 345 141 363 231 l 472 752 l 610 752 z"},"o":{"x_min":0,"x_max":494,"ha":494,"o":"m 8 159 q 8 183 12 219 q 17 255 26 302 q 42 381 56 423 q 71 465 92 497 q 118 537 161 557 q 204 578 260 578 q 353 578 399 534 q 446 490 446 403 q 446 375 441 338 q 437 302 428 258 q 415 191 398 144 q 381 96 360 63 q 335 23 292 2 q 249 -19 192 -19 q 100 -19 54 25 q 8 69 8 159 z m 257 482 q 227 482 208 461 q 190 441 175 384 q 154 307 143 243 q 131 179 131 148 q 131 110 146 94 q 161 77 194 77 q 225 77 243 98 q 261 119 276 176 q 296 251 308 314 q 320 378 320 410 q 320 447 305 465 q 290 482 257 482 z"},"N":{"x_min":0,"x_max":600,"ha":600,"o":"m 123 0 l -14 0 l 144 752 l 294 752 l 364 338 q 369 312 372 274 q 375 236 375 189 l 382 189 q 385 242 390 286 q 395 330 401 360 l 474 752 l 612 752 l 456 0 l 301 0 l 238 426 q 232 463 229 501 q 226 540 225 577 l 218 577 q 217 537 212 494 q 207 451 199 405 z"},"+":{"x_min":0,"x_max":833,"ha":833,"o":"m 367 596 l 466 596 l 466 347 l 709 347 l 709 250 l 466 250 l 466 0 l 367 0 l 367 250 l 124 250 l 124 347 l 367 347 z"},"G":{"x_min":0,"x_max":589,"ha":589,"o":"m 365 69 q 334 25 297 4 q 260 -17 214 -17 q 130 -17 78 37 q 26 92 26 180 q 26 212 30 249 q 33 286 42 342 q 56 427 73 492 q 89 557 107 601 q 144 689 197 729 q 250 769 331 769 q 444 769 496 719 q 548 668 548 558 q 548 546 547 533 q 546 521 544 505 l 409 505 q 411 523 411 537 q 412 551 412 560 q 412 617 394 640 q 376 663 333 663 q 294 663 271 635 q 248 608 228 534 q 196 415 178 319 q 160 224 160 180 q 160 133 180 110 q 201 86 241 86 q 295 86 327 135 q 359 185 369 284 l 283 284 l 307 399 l 534 399 l 453 0 l 356 0 z"},"q":{"x_min":0,"x_max":498,"ha":498,"o":"m 263 469 q 239 469 220 453 q 202 438 190 408 q 166 344 151 271 q 136 199 136 145 q 136 108 147 93 q 158 78 184 78 q 208 78 226 94 q 244 110 257 142 q 265 162 273 192 q 281 222 291 264 q 301 310 307 345 q 312 381 312 403 q 312 435 299 452 q 287 469 263 469 z m 187 -190 l 234 35 q 217 9 192 -5 q 167 -18 136 -18 q 72 -18 40 23 q 9 63 9 147 q 9 170 12 199 q 15 228 22 268 q 32 324 45 372 q 58 419 73 453 q 100 515 138 544 q 176 573 228 573 q 267 573 294 553 q 320 533 333 494 l 346 560 l 478 560 l 318 -190 z"},"d":{"x_min":0,"x_max":498,"ha":498,"o":"m 263 469 q 239 469 220 453 q 202 438 190 408 q 166 344 151 271 q 136 199 136 145 q 136 108 147 93 q 158 78 184 78 q 208 78 226 94 q 244 110 257 142 q 265 162 273 192 q 281 222 291 264 q 301 310 307 345 q 312 381 312 403 q 312 435 299 452 q 287 469 263 469 z m 244 0 l 257 58 q 232 19 203 0 q 174 -18 135 -18 q 71 -18 40 23 q 9 63 9 147 q 9 170 12 199 q 15 228 22 268 q 32 324 45 372 q 58 419 73 453 q 100 515 138 544 q 176 573 228 573 q 267 573 294 553 q 320 533 333 494 l 387 750 l 521 750 l 359 0 z"},"1":{"x_min":0,"x_max":500,"ha":500,"o":"m 277 0 l 144 0 l 257 548 q 219 542 179 537 q 138 533 96 531 l 114 619 q 206 627 260 658 q 314 689 340 748 l 432 748 z"},"5":{"x_min":0,"x_max":500,"ha":500,"o":"m 21 248 l 148 248 q 144 209 142 192 q 141 175 141 163 q 141 121 156 101 q 171 81 204 81 q 252 81 280 144 q 308 206 308 316 q 308 361 291 382 q 273 403 237 403 q 215 403 198 390 q 181 378 173 356 l 49 356 l 153 741 l 487 741 l 465 636 l 234 636 l 190 470 q 209 485 234 493 q 258 500 288 500 q 360 500 398 449 q 437 398 437 304 q 437 241 422 179 q 407 117 382 74 q 354 27 310 3 q 265 -20 203 -20 q 112 -20 63 29 q 13 78 13 166 q 13 190 15 211 q 17 231 21 248 z"}}}
